<?xml version="1.0" encoding="utf-8"?>
<!-- Generator: Adobe Illustrator 28.0.0, SVG Export Plug-In . SVG Version: 6.00 Build 0)  -->
<svg version="1.1" id="图层_1" xmlns="http://www.w3.org/2000/svg" xmlns:xlink="http://www.w3.org/1999/xlink" x="0px" y="0px"
	 viewBox="0 0 256 256" style="enable-background:new 0 0 256 256;" xml:space="preserve">
<style type="text/css">
	.st0{display:none;fill:#FFFFFF;}
	.st1{fill:#231815;}
</style>
<path class="st0" d="M56,0h144c30.9,0,56,25.1,56,56v144c0,30.9-25.1,56-56,56H56c-30.9,0-56-25.1-56-56V56C0,25.1,25.1,0,56,0z"/>
<g>
	<path class="st1" d="M122.8,100.3l-90.3,66.4c1.5-1.3,3.6-3.3,6.4-5.9c2.8-2.5,5.3-5.3,8.7-8.7c3.1-3.3,6.4-6.9,9.7-10.7
		c3.3-3.8,6.4-7.9,9.4-12c3.1-4.1,5.6-8.1,7.6-12.2c2.3-4.1,3.8-8.1,4.6-12L95,40.2h55.2c7.6,0,14.8,1,21.6,2.8
		c6.9,1.8,12.7,4.6,18.1,7.9l-51.1,37.7c0.8-0.8,1.8-1.8,3.3-3.3c1.5-1.5,3.1-3.1,4.3-4.6c1.3-1.5,2.3-3.1,3.1-4.3
		c0.8-1.3,0.8-2.3-0.3-2.8c-2.3-0.5-4.6-0.8-7.1-0.8h-12.7L122.8,100.3z M77.2,222.2c1.3-1,2.8-2.3,4.8-4.3c2-1.8,3.8-3.6,5.3-5.6
		c1.5-1.8,2.8-3.6,3.3-4.8c0.5-1.5,0.3-2.3-1.3-2.3H53.8l14-56.5l52.4-38.7l-15.5,62.6h12.7c6.9,0,13-1.3,18.1-3.8
		c5.1-2.5,9.7-6.1,13.5-10.4c3.8-4.3,6.9-9.4,9.4-15c2.5-5.6,4.6-11.5,5.9-17.6l1.8-6.9c3.8-15.5,3.8-27-0.5-34.9
		c-1-2-2.3-3.6-3.8-4.8l61.8-45.3c-4.3,4.3-8.4,8.4-11.7,12.2c-2,2.3-3.6,4.3-4.6,5.9c-1,1.5-2,3.1-2.8,4.6
		c-0.8,1.5-1.3,3.1-1.8,4.3c-0.3,1.3-0.3,2.5,0,3.6c2.8,4.1,4.8,8.7,6.6,13.7c3.8,12,4.1,25.7,0.3,40.5l-1.8,6.9L77.2,222.2z
		 M111.3,205.1L221,124.4c-0.5,0.5-1.8,2-3.6,4.1c-1.8,2-4.1,4.6-6.4,7.4c-2.3,2.8-4.8,6.1-7.6,9.4c-2.5,3.3-5.1,6.9-7.4,10.2
		c-4.6,7.4-9.9,14.3-16,20.4c-6.1,6.1-12.7,11.2-20.1,15.5c-7.4,4.3-15,7.6-23.2,10.2C128.6,203.6,120.2,204.8,111.3,205.1z"/>
</g>
</svg>
