<?xml version="1.0" encoding="utf-8"?>
<!-- Generator: Adobe Illustrator 28.0.0, SVG Export Plug-In . SVG Version: 6.00 Build 0)  -->
<svg version="1.1" id="图层_1" xmlns="http://www.w3.org/2000/svg" xmlns:xlink="http://www.w3.org/1999/xlink" x="0px" y="0px"
	 viewBox="0 0 256 256" style="enable-background:new 0 0 256 256;" xml:space="preserve">
<style type="text/css">
	.st0{display:none;}
	.st1{display:inline;fill:#231815;}
	.st2{fill:#353535;}
</style>
<g class="st0">
	<path class="st1" d="M122.8,100.3l-90.3,66.4c1.5-1.3,3.6-3.3,6.4-5.9c2.8-2.5,5.3-5.3,8.7-8.7c3.1-3.3,6.4-6.9,9.7-10.7
		s6.4-7.9,9.4-12c3.1-4.1,5.6-8.1,7.6-12.2c2.3-4.1,3.8-8.1,4.6-12l16.1-65h55.2c7.6,0,14.8,1,21.6,2.8c6.9,1.8,12.7,4.6,18.1,7.9
		l-51.1,37.7c0.8-0.8,1.8-1.8,3.3-3.3s3.1-3.1,4.3-4.6c1.3-1.5,2.3-3.1,3.1-4.3c0.8-1.3,0.8-2.3-0.3-2.8c-2.3-0.5-4.6-0.8-7.1-0.8
		h-12.7L122.8,100.3z M77.2,222.2c1.3-1,2.8-2.3,4.8-4.3c2-1.8,3.8-3.6,5.3-5.6c1.5-1.8,2.8-3.6,3.3-4.8c0.5-1.5,0.3-2.3-1.3-2.3
		H53.8l14-56.5l52.4-38.7l-15.5,62.6h12.7c6.9,0,13-1.3,18.1-3.8s9.7-6.1,13.5-10.4c3.8-4.3,6.9-9.4,9.4-15s4.6-11.5,5.9-17.6
		l1.8-6.9c3.8-15.5,3.8-27-0.5-34.9c-1-2-2.3-3.6-3.8-4.8l61.8-45.3c-4.3,4.3-8.4,8.4-11.7,12.2c-2,2.3-3.6,4.3-4.6,5.9
		c-1,1.5-2,3.1-2.8,4.6s-1.3,3.1-1.8,4.3c-0.3,1.3-0.3,2.5,0,3.6c2.8,4.1,4.8,8.7,6.6,13.7c3.8,12,4.1,25.7,0.3,40.5l-1.8,6.9
		L77.2,222.2z M111.3,205.1L221,124.4c-0.5,0.5-1.8,2-3.6,4.1c-1.8,2-4.1,4.6-6.4,7.4c-2.3,2.8-4.8,6.1-7.6,9.4
		c-2.5,3.3-5.1,6.9-7.4,10.2c-4.6,7.4-9.9,14.3-16,20.4c-6.1,6.1-12.7,11.2-20.1,15.5c-7.4,4.3-15,7.6-23.2,10.2
		C128.6,203.6,120.2,204.8,111.3,205.1z"/>
</g>
<g>
	<path class="st2" d="M86.3,91.4c15.2,0,26.9,4.9,23.2,19.9c-1.4,5.6-6.1,12.3-12.4,14.6l-1.6,0.3c6.9,2,11.7,8.1,9,18.8
		c-3.5,14.2-17,20.1-33.1,20.1H42.9l18.3-73.7H86.3z M88.5,140.4c1.3-5.1-1.9-6.7-10.5-6.7h-9.5L64,151.5h8.1
		C80.6,151.5,86.7,147.6,88.5,140.4z M92.4,110.6c1.1-4.4-1.4-5.7-8.8-5.7h-8l-3.9,15.7h6.6C85.9,120.6,90.9,116.5,92.4,110.6z"/>
	<path class="st2" d="M147.8,91.4l-14.7,58.8H155l-3.7,14.9h-39.6L130,91.4H147.8z"/>
	<path class="st2" d="M180.7,150.8l10.4-41.9h-13.6l2.1-11.1c8.3-1.5,14.1-3.7,20-6.8l13.5,0.4l-14.8,59.4h13.3L208,165h-46.5
		l3.6-14.3H180.7z"/>
</g>
</svg>
