<?xml version="1.0" encoding="utf-8"?>
<!-- Generator: Adobe Illustrator 28.0.0, SVG Export Plug-In . SVG Version: 6.00 Build 0)  -->
<svg version="1.1" id="图层_1" xmlns="http://www.w3.org/2000/svg" xmlns:xlink="http://www.w3.org/1999/xlink" x="0px" y="0px"
	 viewBox="0 0 256 256" style="enable-background:new 0 0 256 256;" xml:space="preserve">
<style type="text/css">
	.st0{fill:#FFFFFF;}
	.st1{display:none;}
	.st2{display:inline;fill:#231815;}
	.st3{display:inline;fill:#353535;}
	.st4{fill:#353535;}
</style>
<path class="st0" d="M56,0h144c30.9,0,56,25.1,56,56v144c0,30.9-25.1,56-56,56H56c-30.9,0-56-25.1-56-56V56C0,25.1,25.1,0,56,0z"/>
<g class="st1">
	<path class="st2" d="M122.8,100.3l-90.3,66.4c1.5-1.3,3.6-3.3,6.4-5.9c2.8-2.5,5.3-5.3,8.7-8.7c3.1-3.3,6.4-6.9,9.7-10.7
		s6.4-7.9,9.4-12c3.1-4.1,5.6-8.1,7.6-12.2c2.3-4.1,3.8-8.1,4.6-12l16.1-65h55.2c7.6,0,14.8,1,21.6,2.8c6.9,1.8,12.7,4.6,18.1,7.9
		l-51.1,37.7c0.8-0.8,1.8-1.8,3.3-3.3s3.1-3.1,4.3-4.6c1.3-1.5,2.3-3.1,3.1-4.3c0.8-1.3,0.8-2.3-0.3-2.8c-2.3-0.5-4.6-0.8-7.1-0.8
		h-12.7L122.8,100.3z M77.2,222.2c1.3-1,2.8-2.3,4.8-4.3c2-1.8,3.8-3.6,5.3-5.6c1.5-1.8,2.8-3.6,3.3-4.8c0.5-1.5,0.3-2.3-1.3-2.3
		H53.8l14-56.5l52.4-38.7l-15.5,62.6h12.7c6.9,0,13-1.3,18.1-3.8s9.7-6.1,13.5-10.4c3.8-4.3,6.9-9.4,9.4-15s4.6-11.5,5.9-17.6
		l1.8-6.9c3.8-15.5,3.8-27-0.5-34.9c-1-2-2.3-3.6-3.8-4.8l61.8-45.3c-4.3,4.3-8.4,8.4-11.7,12.2c-2,2.3-3.6,4.3-4.6,5.9
		c-1,1.5-2,3.1-2.8,4.6s-1.3,3.1-1.8,4.3c-0.3,1.3-0.3,2.5,0,3.6c2.8,4.1,4.8,8.7,6.6,13.7c3.8,12,4.1,25.7,0.3,40.5l-1.8,6.9
		L77.2,222.2z M111.3,205.1L221,124.4c-0.5,0.5-1.8,2-3.6,4.1c-1.8,2-4.1,4.6-6.4,7.4c-2.3,2.8-4.8,6.1-7.6,9.4
		c-2.5,3.3-5.1,6.9-7.4,10.2c-4.6,7.4-9.9,14.3-16,20.4c-6.1,6.1-12.7,11.2-20.1,15.5c-7.4,4.3-15,7.6-23.2,10.2
		C128.6,203.6,120.2,204.8,111.3,205.1z"/>
</g>
<g class="st1">
	<path class="st3" d="M79.9,85.8c17.6,0,31,5.6,26.7,22.9c-1.6,6.5-7.1,14.1-14.3,16.8l-1.8,0.3c8,2.3,13.5,9.4,10.4,21.7
		c-4,16.3-19.6,23.2-38.1,23.2H30l21.1-84.9C51.1,85.8,79.9,85.8,79.9,85.8z M82.4,142.3c1.5-5.9-2.2-7.8-12.1-7.8h-11l-5,20.5h9.4
		C73.4,155,80.4,150.6,82.4,142.3z M87,107.9c1.3-5-1.6-6.6-10.2-6.6h-9.2l-4.4,18.1h7.6C79.5,119.4,85.3,114.8,87,107.9z"/>
	<path class="st3" d="M150.8,85.8l-16.9,67.8h25.2l-4.2,17.1h-45.7l21.1-84.9C130.3,85.8,150.8,85.8,150.8,85.8z"/>
	<path class="st3" d="M188.7,154.2l12-48.3h-15.6l2.4-12.8c9.6-1.7,16.2-4.2,23-7.9l15.5,0.5l-17,68.4h15.3l-4.1,16.4h-53.6
		l4.1-16.4h18V154.2z"/>
</g>
<g>
	<g>
		<path class="st4" d="M40.9,122.9c0.3-3.1,0.6-5.6,0.8-7.6c0.2-2,0.3-4.5,0.5-7.6c0.2-3.1,0.3-6.5,0.4-10.2c0.1-3.7,0.2-8.1,0.3-13
			c3.3,0.1,5.9,0.1,7.8,0.1c1.8,0,4.3,0,7.7-0.1c-0.4,4.7-0.7,8.9-0.9,12.5c-0.2,3.6-0.3,7.4-0.4,11.4c-0.1,7.1-0.2,12-0.2,14.5
			c-3,0-5.6-0.1-7.7-0.1C47.2,122.8,44.4,122.9,40.9,122.9z M43.3,79.7c0.2-3,0.2-5.3,0.2-7.1c0-0.5,0-1.2,0-2
			c3,0.1,5.6,0.1,7.6,0.1c2.8,0,5.3,0,7.5-0.1c-0.1,0.8-0.1,1.4-0.2,2l-0.2,4.7c-0.1,0.7-0.1,1.5-0.1,2.5c-2.5,0-4.9-0.1-7.1-0.1
			C48.6,79.6,46.1,79.6,43.3,79.7z"/>
		<path class="st4" d="M66.9,122.9c0.5-4.8,1.1-14,1.7-27.6H64c0.1-0.8,0.2-2.4,0.3-5c0.1-2.5,0.2-4.4,0.2-5.5h5.3c0-1,0-1.9,0-2.6
			c0-2.3,0.1-4.1,0.4-5.4c0.2-1.3,0.7-2.4,1.3-3.3c0.6-0.9,1.5-1.7,2.7-2.4c1.2-0.7,2.5-1.2,4-1.4c1.5-0.3,3-0.4,4.6-0.4
			c1.5,0,3,0.1,4.7,0.3c1.7,0.2,3.7,0.6,6.1,1.2c0.1,4,0.2,7.3,0.5,9.9c-2.5-0.9-4.7-1.4-6.7-1.4c-1.4,0-2.4,0.3-3.2,0.9
			c-0.8,0.6-1.1,1.8-1.1,3.5l0,1.1h8.7c-0.2,2.9-0.4,6.4-0.6,10.5h-7.8l-1.2,27.6c-3,0-5.5-0.1-7.7-0.1
			C72.2,122.8,69.7,122.9,66.9,122.9z"/>
		<path class="st4" d="M95.7,122.9l0.7-8.1l1.5-28.1l0.4-15.1c3.5,0,6.1,0.1,7.9,0.1c2.3,0,4.8,0,7.6-0.1l-0.9,11.6l-1.4,28.4
			l-0.3,11.4c-2.7,0-5.1,0-7.3,0L95.7,122.9z"/>
		<path class="st4" d="M161.7,122.9c-2.9,0-5.2-0.1-7.2-0.1c-2.4,0-4.7,0-7.1,0.1l0-5.2c-0.9,1.1-1.7,2-2.3,2.5
			c-0.6,0.6-1.3,1.1-2.1,1.5c-0.7,0.4-1.6,0.8-2.5,1.1c-0.9,0.3-2,0.6-3.2,0.7c-1.2,0.2-2.4,0.3-3.6,0.3c-2,0-3.9-0.2-5.6-0.7
			c-1.8-0.5-3.3-1.2-4.7-2.4c-1.3-1.1-2.3-2.4-2.7-3.8c-0.5-1.4-0.7-3-0.7-4.9c0-0.5,0-1.2,0.1-2.1l0.6-8.5
			c0.2-3.1,0.3-6.6,0.5-10.4c0.1-2.3,0.2-4.5,0.2-6.6c3.1,0.1,5.8,0.1,7.9,0.1c2.2,0,4.6,0,7.3-0.1l-1.2,14.3
			c-0.2,2.2-0.3,3.7-0.3,4.5c0,0.8,0,1.3,0,1.6c0,2.6,0.5,4.4,1.6,5.3c1.1,0.9,2.3,1.4,3.8,1.4c0.6,0,1.2-0.1,1.8-0.3
			s1.2-0.4,1.7-0.8c0.5-0.3,0.9-0.7,1.3-1.1c0.4-0.5,0.8-1.1,1.1-1.7c0.4-0.8,0.7-1.7,0.9-2.7c0.3-1.3,0.5-3,0.6-5
			c0.1-1.5,0.2-4,0.4-7.7l0.3-7.9c3.2,0.1,5.9,0.1,8,0.1c2.3,0,4.7,0,7-0.1c-0.6,6.4-1,12.4-1.3,18.2
			C162.1,108.4,161.9,115.2,161.7,122.9z"/>
		<path class="st4" d="M166.1,122.9l8.6-11.4l6.4-8.7l-11.8-18.3c3.7,0.1,6.8,0.1,9.4,0.1c3.3,0,6,0,8.2-0.1l4,8.6
			c0.3,0.5,0.6,1.3,1.1,2.4c1.9-3.3,4.2-7,6.8-11.1c2.2,0.1,4.9,0.1,8,0.1c2.9,0,5.6,0,8.2-0.1l-6,7.9c-1.2,1.6-3.7,5-7.6,10.2
			c2.3,4,6.5,10.8,12.6,20.3c-2.8,0-5.6-0.1-8.4-0.1c-3.4,0-6.4,0-9,0.1c-1.6-3.5-2.9-6.1-3.7-7.8c-0.9-1.7-1.6-3.2-2.2-4.6
			l-1.2,2.1c-0.4,0.6-1,1.6-1.7,2.8l-4.8,7.6c-2.7,0-5.3-0.1-7.9-0.1C172.2,122.8,169.2,122.9,166.1,122.9z"/>
	</g>
	<g>
		<path class="st4" d="M77.4,158.3c0.5-2.5,0.8-4.2,0.9-5.1c0.1-0.9,0.3-2.4,0.6-4.4c7.2-1.6,13.4-2.4,18.6-2.4c3,0,5.7,0.3,8.1,1
			c2.5,0.7,4.4,1.7,5.8,3.2c1.4,1.5,2.1,3.6,2.1,6.4c0,1.4-0.2,4.6-0.6,9.5c-0.4,4.9-0.7,11.4-0.9,19.3c-2.5,0-4.9-0.1-7.3-0.1
			c-2.4,0-4.9,0-7.5,0.1c0.3-2.8,0.7-8.5,1.1-17.1c-1,0.5-1.7,0.8-2.2,1c-0.5,0.2-1.5,0.5-2.8,0.9c-1.4,0.4-2.4,0.7-3.2,1
			c-0.8,0.3-1.4,0.6-2,1.1c-0.6,0.4-1,0.9-1.2,1.3c-0.2,0.5-0.4,1-0.4,1.5c0,0.9,0.3,1.6,1,2.2s1.8,0.9,3.2,0.9c0.5,0,1.1,0,1.7-0.1
			c0.6-0.1,1.4-0.3,2.5-0.7c-0.7,1.9-1.6,4.8-2.6,8.5c-2.2,0.4-4.2,0.5-6.1,0.5c-3.1,0-5.7-0.4-7.8-1.3c-2.1-0.9-3.7-2.3-4.8-4.2
			c-1.1-1.9-1.7-3.9-1.7-5.8c0-1.2,0.2-2.3,0.6-3.5c0.4-1.1,1.1-2.2,1.9-3.3c0.9-1.1,1.9-2,3.1-2.8c1.2-0.8,2.8-1.5,4.8-2.2
			c2-0.7,4.6-1.3,7.8-1.9c1.3-0.3,2.5-0.5,3.6-0.8c1.1-0.3,1.9-0.5,2.3-0.8c0.5-0.2,0.8-0.5,1.1-0.8c0.3-0.3,0.5-0.6,0.6-0.9
			c0.1-0.3,0.2-0.6,0.2-1c0-1-0.4-1.7-1.2-2.2c-0.8-0.5-2-0.8-3.5-0.8C89.1,154.7,83.7,155.9,77.4,158.3z"/>
		<path class="st4" d="M120.5,185.8l1.2-16.7l0.4-9.6c0-1.7,0-3.5,0-5.3c0-1.8,0-4.1-0.1-6.8c3,0,5.4,0.1,7.2,0.1
			c2.1,0,4.5,0,7.2-0.1l-0.2,4.3c1-1.1,1.8-1.9,2.4-2.5c0.6-0.5,1.3-1,2.1-1.5c0.8-0.4,1.6-0.8,2.5-1c0.9-0.2,1.8-0.3,2.7-0.3
			c0.9,0,1.9,0.1,3,0.4c0,2.7,0.1,5,0.2,6.8l0.3,5.8c-1.4-0.4-2.7-0.6-3.9-0.6c-1.5,0-2.8,0.2-3.9,0.7c-1.1,0.4-2.1,1.1-2.9,2
			c-0.8,0.9-1.5,2-2,3.3c-0.5,1.3-0.9,3.4-1.1,6.3c-0.2,2.9-0.3,6.2-0.3,9.9c0,1.3,0.1,2.9,0.1,4.9c-2.4,0-4.9-0.1-7.3-0.1
			C125.9,185.7,123.3,185.8,120.5,185.8z"/>
		<path class="st4" d="M181.6,174.8c-0.5,2.1-0.8,4.2-1.2,6.2l-0.8,4.6c-2.5,0.6-4.4,0.9-5.8,1.1c-1.4,0.2-2.7,0.2-4,0.2
			c-2.1,0-4-0.2-5.7-0.5c-1.7-0.4-3-1-4.1-2c-1.1-1-1.9-2.1-2.3-3.3c-0.4-1.3-0.6-2.6-0.6-4c0-0.2,0-0.7,0-1.3
			c0-0.6,0.1-2.1,0.3-4.3l0.8-13h-5.9c0.1-1.7,0.2-4,0.3-6.8l0.1-3.5h6.2c0.1-1.2,0.3-3.7,0.6-7.6l6.4-1.3c1.2-0.2,3.7-0.8,7.5-1.7
			c-0.2,3.3-0.3,6.8-0.4,10.6h8.6c-0.2,5.2-0.3,8.7-0.3,10.3h-8.7l-0.5,9.4c-0.1,1.4-0.1,2.3-0.1,2.7c0,1.2,0.1,2.2,0.4,3
			c0.3,0.8,0.7,1.4,1.4,1.7c0.7,0.4,1.4,0.5,2.2,0.5c0.6,0,1.2,0,1.9-0.1C178.8,175.5,180,175.2,181.6,174.8z"/>
	</g>
</g>
</svg>
